<svg viewBox="0 0 512 512" width="512" height="512" xmlns="http://www.w3.org/2000/svg">
  <defs>
    <linearGradient id="bg-gradient" x1="0%" y1="0%" x2="100%" y2="100%">
      <stop offset="0%" stop-color="#6366F1" /> <stop offset="100%" stop-color="#A855F7" /> </linearGradient>
    
    <filter id="drop-shadow" x="-10%" y="-10%" width="120%" height="120%">
      <feDropShadow dx="0" dy="8" stdDeviation="8" flood-color="#000000" flood-opacity="0.2"/>
    </filter>
  </defs>

  <rect x="0" y="0" width="512" height="512" rx="115" fill="url(#bg-gradient)" />

  <g filter="url(#drop-shadow)">
    <rect x="110" y="110" width="120" height="120" rx="28" fill="none" stroke="#FFFFFF" stroke-width="24" />
    <rect x="146" y="146" width="48" height="48" rx="14" fill="#FFFFFF" />

    <rect x="282" y="110" width="120" height="120" rx="28" fill="none" stroke="#FFFFFF" stroke-width="24" />
    <rect x="318" y="146" width="48" height="48" rx="14" fill="#FFFFFF" />

    <rect x="110" y="282" width="120" height="120" rx="28" fill="none" stroke="#FFFFFF" stroke-width="24" />
    <rect x="146" y="318" width="48" height="48" rx="14" fill="#FFFFFF" />

    <rect x="246" y="246" width="36" height="36" rx="10" fill="#FFFFFF" />
    <rect x="110" y="246" width="36" height="36" rx="10" fill="#FFFFFF" fill-opacity="0.7" />
    <rect x="282" y="246" width="36" height="36" rx="10" fill="#FFFFFF" fill-opacity="0.7" />
    <rect x="246" y="110" width="20" height="36" rx="10" fill="#FFFFFF" />
    <rect x="246" y="282" width="20" height="60" rx="10" fill="#FFFFFF" />
    <rect x="246" y="162" width="20" height="68" rx="10" fill="#FFFFFF" fill-opacity="0.5" />
    
    <path d="M 342 245 
             Q 342 342 245 342 
             Q 342 342 342 439 
             Q 342 342 439 342 
             Q 342 342 342 245 Z" 
          fill="#FDE047" /> <path d="M 425 245 
             Q 425 275 395 275 
             Q 425 275 425 305 
             Q 425 275 455 275 
             Q 425 275 425 245 Z" 
          fill="#FFFFFF" fill-opacity="0.9" />
  </g>
</svg>
